<svg width="243" height="214" viewBox="0 0 243 214" fill="none" xmlns="http://www.w3.org/2000/svg">
<g filter="url(#filter0_b_297_26)">
<path d="M218.869 68.728C230.087 117.316 214.938 172.89 166.517 184.069C118.096 195.248 32.7313 188.79 21.5138 140.201C10.2962 91.6127 79.6292 28.6309 128.05 17.452C176.471 6.27317 208.514 -1.12454 218.869 68.728Z" fill="url(#paint0_radial_297_26)"/>
</g>
<g filter="url(#filter1_d_297_26)">
<path d="M57.6546 136.407L51.2754 127.941L52.8088 126.786L55.517 130.379L60.3407 126.744L57.6325 123.151L59.1659 121.995L65.5452 130.461L64.0118 131.616L61.3397 128.07L56.516 131.705L59.188 135.251L57.6546 136.407ZM73.7178 124.302L72.3698 122.513L72.0371 122.238L69.7382 119.187C69.2487 118.538 68.6799 118.182 68.0318 118.119C67.3863 118.038 66.6855 118.282 65.9294 118.852C65.429 119.229 65.0033 119.683 64.6525 120.215C64.2937 120.736 64.0536 121.259 63.9321 121.784L62.4266 121.116C62.5984 120.435 62.9195 119.776 63.3901 119.138C63.8632 118.481 64.4353 117.899 65.1061 117.394C66.2668 116.519 67.3739 116.127 68.4275 116.218C69.481 116.309 70.4451 116.935 71.3197 118.096L75.1713 123.207L73.7178 124.302ZM71.0108 126.492C70.3825 126.966 69.7486 127.277 69.1089 127.425C68.4799 127.565 67.8972 127.545 67.3608 127.365C66.8163 127.174 66.3636 126.839 66.0025 126.36C65.6574 125.902 65.451 125.406 65.3831 124.873C65.3259 124.332 65.4579 123.765 65.7792 123.172C66.1112 122.571 66.6978 121.954 67.539 121.32L70.2225 119.298L71.053 120.4L68.4334 122.374C67.6667 122.952 67.2466 123.469 67.173 123.925C67.0993 124.381 67.1989 124.79 67.4717 125.152C67.7847 125.568 68.2025 125.779 68.7252 125.785C69.2398 125.782 69.79 125.559 70.3757 125.118C70.9507 124.684 71.3549 124.18 71.5882 123.603C71.8322 123.018 71.8655 122.409 71.6881 121.775L72.786 122.6C72.9608 123.253 72.905 123.921 72.6185 124.605C72.324 125.277 71.7881 125.907 71.0108 126.492ZM82.222 117.894L75.8428 109.428L79.7721 106.467C80.7624 105.721 81.6842 105.327 82.5374 105.285C83.3933 105.224 84.082 105.54 84.6036 106.232C85.1251 106.924 85.2588 107.667 85.0046 108.459C84.7531 109.233 84.1854 109.953 83.3015 110.619L83.2282 110.023C84.2398 109.261 85.1309 108.882 85.9016 108.885C86.6723 108.889 87.3304 109.253 87.8761 109.977C88.4298 110.712 88.5862 111.495 88.3454 112.328C88.1073 113.142 87.4238 113.974 86.2951 114.824L82.222 117.894ZM82.8328 115.58L85.2926 113.727C85.9315 113.245 86.3385 112.788 86.5135 112.356C86.6805 111.913 86.5995 111.473 86.2705 111.037C85.9335 110.589 85.5397 110.377 85.089 110.399C84.641 110.403 84.1029 110.641 83.4747 111.115L80.919 113.041L82.8328 115.58ZM80.0885 111.939L82.3886 110.205C82.9743 109.764 83.3359 109.325 83.4736 108.887C83.6139 108.431 83.5356 108.005 83.2387 107.611C82.9338 107.207 82.5507 107.02 82.0894 107.05C81.6388 107.072 81.1207 107.304 80.535 107.746L78.2349 109.479L80.0885 111.939ZM97.2245 106.589L95.8765 104.8L95.5439 104.524L93.2449 101.474C92.7554 100.824 92.1866 100.468 91.5385 100.405C90.893 100.324 90.1922 100.569 89.4361 101.138C88.9357 101.515 88.51 101.97 88.1592 102.501C87.8004 103.022 87.5603 103.545 87.4388 104.071L85.9333 103.402C86.1051 102.722 86.4262 102.062 86.8968 101.424C87.37 100.767 87.942 100.186 88.6128 99.6801C89.7735 98.8055 90.8806 98.4136 91.9342 98.5046C92.9877 98.5955 93.9518 99.2213 94.8264 100.382L98.6781 105.493L97.2245 106.589ZM94.5175 108.779C93.8892 109.252 93.2553 109.563 92.6156 109.711C91.9866 109.851 91.4039 109.831 90.8675 109.651C90.323 109.46 89.8703 109.125 89.5092 108.646C89.1642 108.188 88.9577 107.693 88.8898 107.159C88.8326 106.618 88.9646 106.051 89.286 105.459C89.6179 104.858 90.2045 104.241 91.0458 103.607L93.7292 101.584L94.5597 102.687L91.9401 104.661C91.1735 105.238 90.7533 105.755 90.6797 106.211C90.606 106.668 90.7056 107.077 90.9785 107.439C91.2914 107.854 91.7092 108.065 92.2319 108.072C92.7466 108.068 93.2967 107.845 93.8824 107.404C94.4574 106.971 94.8616 106.466 95.0949 105.889C95.339 105.305 95.3722 104.695 95.1948 104.061L96.2927 104.887C96.4675 105.54 96.4117 106.208 96.1252 106.891C95.8308 107.564 95.2948 108.193 94.5175 108.779ZM101.439 103.413L95.06 94.947L96.5934 93.7916L99.3015 97.3854L104.125 93.7505L101.417 90.1566L102.95 89.0011L109.33 97.4666L107.796 98.6221L105.124 95.0762L100.301 98.7112L102.973 102.257L101.439 103.413ZM112.311 95.2199L105.932 86.7544L107.465 85.5989L112.111 91.7643L112.657 81.6871L114.046 80.6399L120.425 89.1055L118.892 90.2609L114.246 84.0955L113.717 94.1607L112.311 95.2199ZM121.984 87.9059L121.105 86.5399C121.188 86.4944 121.265 86.4529 121.337 86.4154C121.409 86.3779 121.471 86.3391 121.524 86.2989C121.865 86.0422 122.043 85.7244 122.058 85.3457C122.084 84.959 122 84.5378 121.807 84.0823C121.606 83.6161 121.343 83.122 121.016 82.6001C120.689 82.0781 120.352 81.5642 120.005 81.0584L117.789 77.8194L124.29 72.9206L130.669 81.3862L129.136 82.5416L123.431 74.9706L124.135 75.141L119.791 78.4148L119.793 77.6868L121.45 80.1191C121.98 80.8885 122.447 81.6302 122.851 82.3439C123.256 83.0577 123.552 83.7277 123.74 84.3539C123.939 84.9721 123.988 85.536 123.888 86.0456C123.798 86.5471 123.514 86.9784 123.035 87.3395C122.896 87.4438 122.735 87.5402 122.551 87.6286C122.386 87.7196 122.197 87.8121 121.984 87.9059ZM133.335 70.6126C134.418 69.8128 135.423 69.4398 136.348 69.4937C137.274 69.5476 138.065 70.0112 138.723 70.8843C139.414 71.8001 139.638 72.7409 139.398 73.7068C139.149 74.662 138.457 75.5596 137.32 76.3995L133.634 79.1519L127.255 70.6864L128.788 69.5309L130.943 72.39L133.335 70.6126ZM136.314 75.3298C137.014 74.8189 137.431 74.2873 137.566 73.735C137.711 73.1746 137.571 72.6123 137.146 72.0479C136.729 71.4942 136.248 71.222 135.704 71.2312C135.16 71.2404 134.533 71.5045 133.822 72.0235L131.785 73.5081L134.289 76.8304L136.314 75.3298ZM142.822 72.2287L136.442 63.7632L137.976 62.6077L140.684 66.2015L145.508 62.5666L142.8 58.9727L144.333 57.8172L150.712 66.2828L149.179 67.4382L146.507 63.8923L141.683 67.5273L144.355 71.0732L142.822 72.2287ZM157.392 61.3996C156.54 62.0415 155.643 62.4249 154.702 62.5497C153.761 62.6745 152.854 62.5566 151.982 62.1959C151.101 61.8246 150.347 61.2236 149.721 60.393C149.087 59.5518 148.717 58.662 148.611 57.7235C148.505 56.7851 148.646 55.8861 149.033 55.0266C149.413 54.1564 150.028 53.4003 150.88 52.7584C151.721 52.1245 152.612 51.7451 153.553 51.6203C154.497 51.4768 155.4 51.5894 156.262 51.9581C157.127 52.3082 157.88 52.9091 158.522 53.761C159.156 54.6022 159.526 55.4921 159.632 56.4305C159.749 57.3609 159.613 58.2652 159.223 59.1434C158.843 60.0136 158.233 60.7657 157.392 61.3996ZM156.381 60.0579C156.924 59.6487 157.316 59.1611 157.557 58.5952C157.809 58.0213 157.889 57.4185 157.797 56.7867C157.697 56.1442 157.422 55.5249 156.973 54.9285C156.516 54.3216 156 53.8921 155.426 53.6401C154.844 53.3774 154.243 53.2881 153.621 53.3721C153.011 53.4482 152.434 53.6908 151.891 54.1001C151.348 54.5093 150.956 54.9969 150.714 55.5628C150.473 56.1286 150.393 56.7315 150.475 57.3713C150.548 58.0005 150.813 58.6185 151.271 59.2255C151.72 59.8218 152.245 60.2526 152.846 60.5179C153.438 60.7726 154.04 60.8619 154.65 60.7858C155.261 60.7098 155.838 60.4671 156.381 60.0579ZM163.926 56.3253L157.547 47.8597L159.128 46.6681L167.488 50.1852L166.849 50.6666L165.869 41.5888L167.306 40.5055L173.686 48.9711L172.296 50.0182L167.217 43.2778L167.58 43.2289L168.411 51.4431L167.74 51.9486L159.973 48.7862L160.228 48.4936L165.332 55.2661L163.926 56.3253ZM91.715 140.992C91.0548 141.489 90.3329 141.816 89.5492 141.973C88.7656 142.129 87.9962 142.083 87.2409 141.834L87.3489 140.05C87.9786 140.243 88.5735 140.312 89.1333 140.258C89.6959 140.184 90.2114 139.971 90.6799 139.618C91.9577 138.655 92.0269 137.418 90.8875 135.906L86.1572 129.628L82.1161 132.674L81.069 131.284L86.6913 127.047L92.4086 134.634C93.3474 135.88 93.7514 137.037 93.6205 138.104C93.5002 139.162 92.8651 140.125 91.715 140.992ZM103.402 131.985L102.054 130.196L101.721 129.921L99.4221 126.87C98.9326 126.22 98.3638 125.864 97.7157 125.802C97.0702 125.721 96.3694 125.965 95.6133 126.535C95.1129 126.912 94.6872 127.366 94.3364 127.898C93.9776 128.418 93.7375 128.942 93.616 129.467L92.1105 128.799C92.2822 128.118 92.6034 127.459 93.074 126.82C93.5471 126.163 94.1192 125.582 94.79 125.077C95.9507 124.202 97.0578 123.81 98.1114 123.901C99.1649 123.992 100.129 124.618 101.004 125.778L104.855 130.89L103.402 131.985ZM100.695 134.175C100.066 134.649 99.4325 134.959 98.7928 135.107C98.1638 135.248 97.5811 135.228 97.0447 135.047C96.5002 134.857 96.0475 134.522 95.6864 134.043C95.3413 133.585 95.1349 133.089 95.067 132.556C95.0098 132.015 95.1418 131.448 95.4631 130.855C95.7951 130.254 96.3817 129.637 97.2229 129.003L99.9064 126.981L100.737 128.083L98.1173 130.057C97.3506 130.635 96.9305 131.152 96.8569 131.608C96.7832 132.064 96.8828 132.473 97.1556 132.835C97.4686 133.25 97.8864 133.462 98.4091 133.468C98.9237 133.464 99.4739 133.242 100.06 132.801C100.635 132.367 101.039 131.862 101.272 131.286C101.516 130.701 101.549 130.092 101.372 129.458L102.47 130.283C102.645 130.936 102.589 131.604 102.302 132.287C102.008 132.96 101.472 133.589 100.695 134.175ZM109.757 127.196L99.6722 121.523L101.269 120.319L110.337 125.507L109.571 126.084L107.147 115.89L108.649 114.758L111.322 126.016L109.757 127.196ZM121.449 118.385L120.101 116.596L119.768 116.321L117.469 113.27C116.98 112.621 116.411 112.265 115.763 112.202C115.117 112.121 114.417 112.365 113.661 112.935C113.16 113.312 112.735 113.766 112.384 114.298C112.025 114.819 111.785 115.342 111.663 115.868L110.158 115.199C110.33 114.519 110.651 113.859 111.121 113.221C111.594 112.564 112.166 111.982 112.837 111.477C113.998 110.602 115.105 110.21 116.159 110.301C117.212 110.392 118.176 111.018 119.051 112.179L122.903 117.29L121.449 118.385ZM118.742 120.576C118.114 121.049 117.48 121.36 116.84 121.508C116.211 121.648 115.628 121.628 115.092 121.448C114.548 121.257 114.095 120.922 113.734 120.443C113.389 119.985 113.182 119.489 113.114 118.956C113.057 118.415 113.189 117.848 113.51 117.255C113.842 116.655 114.429 116.037 115.27 115.403L117.954 113.381L118.784 114.483L116.165 116.457C115.398 117.035 114.978 117.552 114.904 118.008C114.831 118.464 114.93 118.874 115.203 119.236C115.516 119.651 115.934 119.862 116.456 119.869C116.971 119.865 117.521 119.642 118.107 119.201C118.682 118.768 119.086 118.263 119.319 117.686C119.563 117.102 119.597 116.492 119.419 115.858L120.517 116.683C120.692 117.336 120.636 118.005 120.35 118.688C120.055 119.361 119.519 119.99 118.742 120.576ZM129.319 112.656C128.467 113.298 127.556 113.784 126.586 114.114C125.608 114.433 124.739 114.554 123.979 114.476L123.631 112.785C124.338 112.836 125.113 112.736 125.958 112.483C126.803 112.231 127.582 111.836 128.295 111.298C128.945 110.808 129.416 110.337 129.708 109.883C130.001 109.429 130.146 109.002 130.145 108.602C130.136 108.191 130.008 107.821 129.759 107.491C129.47 107.107 129.109 106.895 128.677 106.853C128.256 106.803 127.791 106.862 127.282 107.028C126.775 107.176 126.243 107.377 125.683 107.632C125.124 107.886 124.547 108.129 123.953 108.36C123.361 108.572 122.779 108.718 122.206 108.8C121.643 108.873 121.099 108.816 120.573 108.627C120.04 108.429 119.548 108.031 119.099 107.435C118.665 106.86 118.417 106.22 118.354 105.516C118.294 104.794 118.47 104.052 118.881 103.291C119.295 102.512 119.992 101.753 120.972 101.015C121.622 100.525 122.33 100.125 123.097 99.8137C123.865 99.5026 124.603 99.3303 125.312 99.2967L125.748 100.972C125.028 101.013 124.35 101.166 123.713 101.428C123.068 101.68 122.496 101.995 121.995 102.372C121.367 102.846 120.911 103.315 120.626 103.779C120.342 104.244 120.204 104.682 120.213 105.092C120.233 105.495 120.367 105.861 120.616 106.191C120.913 106.585 121.272 106.807 121.693 106.857C122.125 106.899 122.591 106.84 123.089 106.682C123.598 106.515 124.136 106.31 124.704 106.066C125.263 105.811 125.834 105.573 126.418 105.35C127.012 105.119 127.59 104.968 128.153 104.894C128.726 104.813 129.276 104.866 129.801 105.054C130.327 105.243 130.811 105.63 131.252 106.215C131.677 106.78 131.92 107.423 131.98 108.146C132.033 108.857 131.846 109.607 131.421 110.395C130.999 111.164 130.298 111.917 129.319 112.656ZM139.423 104.992C138.56 105.641 137.648 106.037 136.685 106.178C135.734 106.311 134.821 106.197 133.949 105.836C133.076 105.475 132.322 104.874 131.688 104.033C131.055 103.192 130.685 102.302 130.578 101.364C130.472 100.425 130.618 99.5222 131.016 98.6546C131.417 97.7684 132.048 97.0002 132.911 96.3503C133.678 95.7725 134.476 95.4134 135.305 95.2728C136.136 95.1136 136.942 95.2078 137.721 95.5554L137.121 97.1847C136.531 96.9781 135.962 96.9314 135.413 97.0446C134.866 97.1392 134.364 97.359 133.906 97.704C133.352 98.1213 132.949 98.6169 132.697 99.1908C132.445 99.7647 132.36 100.372 132.442 101.011C132.515 101.641 132.78 102.259 133.238 102.866C133.695 103.473 134.22 103.903 134.813 104.158C135.405 104.413 136.012 104.498 136.633 104.414C137.254 104.33 137.842 104.079 138.396 103.662C138.854 103.317 139.207 102.9 139.457 102.411C139.709 101.904 139.817 101.339 139.781 100.715L141.501 100.571C141.612 101.405 141.484 102.211 141.118 102.988C140.754 103.746 140.189 104.414 139.423 104.992ZM144.786 100.8L138.407 92.3343L139.876 91.227L141.609 93.5271L141.032 93.0604C140.825 92.2982 140.882 91.554 141.203 90.828C141.524 90.1019 142.089 89.434 142.899 88.8241L144.018 90.3096C143.946 90.3471 143.878 90.3899 143.814 90.438C143.761 90.4782 143.708 90.5183 143.655 90.5584C142.835 91.1763 142.37 91.9107 142.26 92.7616C142.149 93.6125 142.443 94.5012 143.142 95.4276L146.319 99.6444L144.786 100.8ZM151.228 95.9454L144.849 87.4798L146.382 86.3244L152.761 94.7899L151.228 95.9454ZM144.388 85.2729C144.089 85.4976 143.767 85.5903 143.42 85.5511C143.084 85.5038 142.812 85.3418 142.603 85.0649C142.387 84.7774 142.302 84.4656 142.349 84.1295C142.407 83.7854 142.585 83.501 142.883 83.2763C143.181 83.0516 143.498 82.9629 143.834 83.0101C144.173 83.0387 144.447 83.1914 144.656 83.4683C144.872 83.7558 144.961 84.0729 144.922 84.4197C144.874 84.7558 144.696 85.0402 144.388 85.2729ZM160.25 89.2973C159.547 89.8269 158.782 90.1527 157.956 90.2745C157.132 90.3777 156.304 90.2423 155.471 89.8682C154.649 89.486 153.876 88.8158 153.154 87.8574C152.432 86.8991 151.995 85.9761 151.844 85.0884C151.703 84.1927 151.8 83.3685 152.134 82.6157C152.479 81.8549 153.014 81.2017 153.738 80.6561C154.569 80.0302 155.44 79.6575 156.351 79.5381C157.263 79.4187 158.15 79.5434 159.012 79.9121C159.866 80.2702 160.618 80.8805 161.268 81.743C161.918 82.6055 162.302 83.502 162.419 84.4324C162.535 85.3628 162.411 86.2497 162.045 87.0932C161.678 87.9367 161.08 88.6714 160.25 89.2973ZM158.024 95.6824L149.31 84.1181L150.779 83.0108L152.5 85.2949L153.885 87.3318L155.525 89.176L159.557 94.5269L158.024 95.6824ZM159.111 88.0519C159.654 87.6427 160.046 87.1551 160.287 86.5892C160.539 86.0153 160.619 85.4125 160.527 84.7807C160.438 84.1302 160.168 83.5068 159.719 82.9105C159.262 82.3035 158.741 81.8781 158.156 81.634C157.574 81.3714 156.973 81.2821 156.352 81.3661C155.741 81.4422 155.164 81.6848 154.621 82.0941C154.089 82.4953 153.697 82.9828 153.445 83.5568C153.203 84.1226 153.123 84.7255 153.205 85.3653C153.289 85.9864 153.559 86.6005 154.017 87.2075C154.466 87.8038 154.986 88.2386 155.576 88.5119C156.168 88.7666 156.77 88.8559 157.38 88.7798C158.002 88.6958 158.578 88.4531 159.111 88.0519ZM169.556 82.2845C168.704 82.9264 167.871 83.195 167.058 83.0902C166.244 82.9853 165.516 82.507 164.874 81.6551L159.025 73.8924L160.558 72.7369L166.36 80.4357C166.705 80.8936 167.081 81.1608 167.49 81.2372C167.908 81.3056 168.331 81.1793 168.757 80.8583C169.236 80.4972 169.535 80.0632 169.654 79.5562L170.963 80.2973C170.882 80.6761 170.712 81.0379 170.454 81.3824C170.207 81.719 169.907 82.0197 169.556 82.2845ZM159.934 78.0903L158.984 76.8285L164.382 72.7602L165.333 74.022L159.934 78.0903Z" fill="white" fill-opacity="0.91" shape-rendering="crispEdges"/>
</g>
<defs>
<filter id="filter0_b_297_26" x="11.3054" y="1.24817" width="220.079" height="196.537" filterUnits="userSpaceOnUse" color-interpolation-filters="sRGB">
<feFlood flood-opacity="0" result="BackgroundImageFix"/>
<feGaussianBlur in="BackgroundImage" stdDeviation="4.5"/>
<feComposite in2="SourceAlpha" operator="in" result="effect1_backgroundBlur_297_26"/>
<feBlend mode="normal" in="SourceGraphic" in2="effect1_backgroundBlur_297_26" result="shape"/>
</filter>
<filter id="filter1_d_297_26" x="43.2153" y="24.4257" width="169.249" height="148.247" filterUnits="userSpaceOnUse" color-interpolation-filters="sRGB">
<feFlood flood-opacity="0" result="BackgroundImageFix"/>
<feColorMatrix in="SourceAlpha" type="matrix" values="0 0 0 0 0 0 0 0 0 0 0 0 0 0 0 0 0 0 127 0" result="hardAlpha"/>
<feOffset dx="7" dy="-1"/>
<feGaussianBlur stdDeviation="7.5"/>
<feComposite in2="hardAlpha" operator="out"/>
<feColorMatrix type="matrix" values="0 0 0 0 0 0 0 0 0 0 0 0 0 0 0 0 0 0 0.25 0"/>
<feBlend mode="normal" in2="BackgroundImageFix" result="effect1_dropShadow_297_26"/>
<feBlend mode="normal" in="SourceGraphic" in2="effect1_dropShadow_297_26" result="shape"/>
</filter>
<radialGradient id="paint0_radial_297_26" cx="0" cy="0" r="1" gradientUnits="userSpaceOnUse" gradientTransform="translate(-118 26.5) rotate(15.9658) scale(365.323 449.313)">
<stop stop-color="#E7C7E8"/>
<stop offset="1" stop-color="#E7C7E8" stop-opacity="0"/>
</radialGradient>
</defs>
</svg>
